<?xml version="1.0" standalone="no"?>
<!DOCTYPE svg PUBLIC "-//W3C//DTD SVG 20010904//EN"
 "http://www.w3.org/TR/2001/REC-SVG-20010904/DTD/svg10.dtd">
<svg version="1.0" xmlns="http://www.w3.org/2000/svg"
 width="1254.000000pt" height="1254.000000pt" viewBox="0 0 1254.000000 1254.000000"
 preserveAspectRatio="xMidYMid meet">

<g transform="translate(0.000000,1254.000000) scale(0.100000,-0.100000)"
fill="#000000" stroke="none">
<path d="M0 6270 l0 -6270 6270 0 6270 0 0 6270 0 6270 -6270 0 -6270 0 0
-6270z m6388 4427 c59 -40 238 -165 397 -278 160 -113 373 -263 475 -334 102
-71 293 -205 424 -297 l240 -168 676 0 677 0 6 -1792 c4 -986 7 -2130 7 -2543
l-1 -750 -712 -415 c-838 -487 -1889 -1110 -2037 -1205 -57 -37 -139 -89 -182
-116 l-78 -48 -218 133 c-284 174 -1022 614 -1652 983 -418 245 -967 567
-1045 613 l-80 47 -3 2546 -2 2547 675 0 675 0 88 63 c48 35 123 87 167 117
137 91 786 542 1095 760 162 115 296 209 298 209 2 1 52 -32 110 -72z"/>
<path d="M6115 10357 c-170 -121 -674 -468 -1156 -795 l-255 -174 -585 1 -584
0 -4 -2362 -3 -2362 23 -14 c79 -48 805 -478 1019 -604 140 -82 388 -229 550
-325 247 -147 947 -560 1112 -656 l47 -27 53 27 c29 15 132 74 228 132 96 58
351 210 565 337 215 128 503 299 640 382 372 223 1202 712 1241 731 l34 16 0
2358 0 2358 -590 0 -589 0 -88 62 c-48 33 -205 142 -348 241 -461 319 -548
379 -665 462 -108 77 -395 277 -450 316 l-26 18 -169 -122z m-1852 -1604 c35
-54 104 -159 153 -233 195 -296 669 -992 1316 -1935 223 -324 436 -636 473
-692 l69 -102 23 32 c13 18 61 87 106 155 45 67 197 289 337 494 140 204 293
428 340 497 48 69 135 198 195 286 61 88 180 264 267 390 174 255 612 910 727
1090 41 63 76 115 78 115 2 0 3 -919 3 -2042 l0 -2043 -150 3 -150 3 -1 1522
c0 1181 -3 1518 -12 1504 -43 -65 -463 -666 -696 -996 -69 -97 -159 -225 -201
-286 -42 -60 -193 -279 -336 -485 -278 -399 -466 -678 -505 -747 -13 -24 -26
-43 -29 -43 -3 1 -97 138 -209 306 -112 167 -273 405 -359 527 -86 122 -204
292 -262 377 -58 85 -162 236 -231 335 -69 99 -191 275 -271 390 -80 116 -166
239 -191 275 -25 36 -90 128 -143 205 -53 77 -100 143 -103 147 -3 4 -5 -678
-3 -1515 l2 -1522 -150 3 -150 3 0 2017 c0 1109 -3 2027 -6 2040 -4 12 -4 22
-1 22 3 0 34 -44 70 -97z m590 -110 c41 -60 129 -187 196 -283 116 -166 189
-271 578 -835 331 -478 618 -899 633 -926 l15 -27 80 116 c460 668 842 1218
1265 1822 75 107 142 205 149 218 11 21 16 22 171 22 88 0 160 -4 160 -8 0
-14 -886 -1311 -1320 -1932 -87 -124 -235 -341 -330 -484 -95 -142 -175 -254
-179 -250 -4 5 -87 128 -185 274 -177 264 -250 372 -531 780 -81 118 -226 332
-322 475 -96 143 -211 314 -257 380 -45 66 -147 215 -226 330 -185 270 -265
386 -285 408 -8 9 -15 19 -15 22 0 3 74 5 164 5 l165 0 74 -107z m226 -2118
l141 -206 0 -777 0 -777 -144 3 -144 3 5 958 c4 721 3 963 -6 979 -7 13 -8 22
-2 22 5 0 73 -92 150 -205z"/>
<path d="M4230 8731 c5 -11 15 -23 21 -27 6 -3 3 5 -6 20 -20 30 -30 35 -15 7z"/>
<path d="M4276 8663 c53 -83 67 -103 71 -103 3 0 -3 12 -13 28 -53 82 -67 102
-71 102 -3 0 3 -12 13 -27z"/>
<path d="M4427 8429 c10 -17 24 -36 32 -42 8 -7 2 7 -14 31 -32 49 -45 57 -18
11z"/>
<path d="M4537 8269 c10 -17 24 -36 32 -42 8 -7 2 7 -14 31 -32 49 -45 57 -18
11z"/>
<path d="M4660 8085 c17 -25 33 -45 36 -45 3 0 -9 20 -26 45 -17 25 -33 45
-36 45 -3 0 9 -20 26 -45z"/>
<path d="M4472 7770 c0 -14 2 -19 5 -12 2 6 2 18 0 25 -3 6 -5 1 -5 -13z"/>
<path d="M4465 6200 c0 -784 1 -1104 2 -712 2 391 2 1033 0 1425 -1 391 -2 71
-2 -713z"/>
<path d="M5016 7558 c21 -36 85 -128 89 -128 3 0 -16 32 -41 70 -26 39 -49 70
-51 70 -2 0 -1 -6 3 -12z"/>
<path d="M5145 7366 c10 -14 19 -26 22 -26 7 0 -17 39 -28 46 -6 3 -3 -5 6
-20z"/>
<path d="M5260 7197 c12 -20 27 -40 32 -44 14 -8 -23 55 -40 70 -8 6 -4 -6 8
-26z"/>
<path d="M5420 6965 c17 -25 33 -45 36 -45 3 0 -9 20 -26 45 -17 25 -33 45
-36 45 -3 0 9 -20 26 -45z"/>
<path d="M5770 6460 c12 -16 24 -30 26 -30 3 0 -4 14 -16 30 -12 17 -24 30
-26 30 -3 0 4 -13 16 -30z"/>
<path d="M5825 6376 c10 -14 19 -26 22 -26 7 0 -17 39 -28 46 -6 3 -3 -5 6
-20z"/>
<path d="M4343 4793 c20 -2 54 -2 75 0 20 2 3 4 -38 4 -41 0 -58 -2 -37 -4z"/>
<path d="M4553 8713 c37 -2 96 -2 130 0 34 2 4 3 -68 3 -71 0 -99 -1 -62 -3z"/>
<path d="M4956 6648 c37 -62 76 -118 85 -123 6 -4 -11 25 -37 64 -26 39 -49
71 -51 71 -2 0 -1 -6 3 -12z"/>
<path d="M5188 5024 c-2 -130 0 -238 5 -241 4 -2 7 104 7 236 0 133 -2 241 -5
241 -2 0 -6 -106 -7 -236z"/>
<path d="M3491 6924 c0 -11 3 -14 6 -6 3 7 2 16 -1 19 -3 4 -6 -2 -5 -13z"/>
<path d="M3492 5489 c-2 -502 -4 -557 -18 -563 -11 -4 -13 -10 -6 -19 5 -6 9
-35 10 -64 0 -43 -3 -52 -20 -56 -17 -5 -18 -8 -7 -20 8 -8 17 -13 21 -11 3 2
4 -6 1 -18 -4 -18 -2 -20 6 -8 7 10 11 2 13 -35 l3 -49 115 -71 c135 -82 230
-137 230 -131 0 4 -43 30 -272 170 l-68 41 -3 695 -2 695 -3 -556z"/>
<path d="M3293 5220 c0 -25 2 -35 4 -22 2 12 2 32 0 45 -2 12 -4 2 -4 -23z"/>
<path d="M3294 4810 c0 -102 2 -143 3 -92 2 50 2 134 0 185 -1 50 -3 9 -3 -93z"/>
<path d="M3485 4620 c3 -5 1 -10 -5 -10 -6 0 -10 -8 -8 -17 2 -10 -3 -23 -11
-29 -13 -10 -13 -13 0 -27 14 -13 17 -13 28 4 6 11 16 17 21 14 6 -3 10 0 10
8 0 8 7 14 16 13 29 -2 26 19 -5 37 -32 19 -56 22 -46 7z"/>
<path d="M3320 4528 c3 -3 30 -19 61 -36 40 -23 56 -28 56 -17 0 8 -4 12 -9 9
-4 -3 -8 1 -8 9 0 7 -12 19 -26 25 -19 9 -24 9 -18 0 5 -8 2 -9 -9 -5 -39 16
-52 20 -47 15z m85 -36 c-3 -3 -11 0 -18 7 -9 10 -8 11 6 5 10 -3 15 -9 12
-12z"/>
<path d="M3850 4437 c0 -3 33 -24 73 -47 91 -54 87 -52 87 -47 0 3 -33 24 -72
47 -92 54 -88 52 -88 47z"/>
<path d="M4020 4336 c0 -3 9 -10 20 -16 11 -6 20 -8 20 -6 0 3 -9 10 -20 16
-11 6 -20 8 -20 6z"/>
<path d="M4105 4285 c22 -18 86 -53 70 -38 -5 6 -28 20 -50 32 -22 13 -31 15
-20 6z"/>
<path d="M4325 4155 c22 -18 86 -53 70 -38 -5 6 -28 20 -50 32 -22 13 -31 15
-20 6z"/>
<path d="M4460 4076 c0 -3 14 -12 30 -21 17 -9 30 -13 30 -11 0 3 -13 12 -30
21 -16 9 -30 13 -30 11z"/>
<path d="M4920 3806 c0 -3 9 -10 20 -16 11 -6 20 -8 20 -6 0 3 -9 10 -20 16
-11 6 -20 8 -20 6z"/>
<path d="M6170 3066 c0 -3 9 -10 20 -16 11 -6 20 -8 20 -6 0 3 -9 10 -20 16
-11 6 -20 8 -20 6z"/>
</g>
</svg>
